<svg width="44" height="44" viewBox="0 0 44 44" fill="none" xmlns="http://www.w3.org/2000/svg">
<rect y="0.25" width="44" height="43" rx="8" fill="#FF9C07" fill-opacity="0.2"/>
<path d="M27.1883 21.1188C28.5287 20.4489 29.3818 19.2579 29.1837 17.2781C28.9247 14.5687 26.6479 13.6607 23.6319 13.4076V9.65625H21.2861V13.3034C20.6767 13.3034 20.0522 13.3183 19.4277 13.3332V9.65625H17.0819V13.4076C16.2194 13.4331 15.2149 13.4207 12.375 13.4076V15.849C14.2271 15.8169 15.1989 15.7006 15.4215 16.8612V27.1328C15.2801 28.0536 14.5261 27.921 12.8472 27.892L12.375 30.6162C16.6522 30.6162 17.0819 30.6311 17.0819 30.6311V33.8438H19.4277V30.6758C20.0675 30.6906 20.692 30.6906 21.2861 30.6906V33.8438H23.6319V30.6311C27.5619 30.4227 30.1891 29.4551 30.5395 25.8377C30.8136 22.9349 29.4122 21.6397 27.1883 21.1188ZM19.4734 16.0127C20.7987 16.0127 24.9419 15.6108 24.9419 18.3052C24.9419 20.8806 20.7987 20.5828 19.4734 20.5828V16.0127ZM19.4734 27.9069V22.8753C21.0576 22.8753 25.9088 22.4436 25.9088 25.3912C25.9087 28.2344 21.0576 27.9069 19.4734 27.9069Z" fill="#FFB849"/>
</svg>
