<svg width="44" height="43" viewBox="0 0 44 43" fill="none" xmlns="http://www.w3.org/2000/svg">
<rect width="44" height="43" rx="8" fill="#2F80ED" fill-opacity="0.2"/>
<path d="M33 14.7812V12.0938C33 10.6116 31.7666 9.40625 30.25 9.40625H12.375C10.1007 9.40625 8.25 11.2149 8.25 13.4375V29.5625C8.25 32.5201 10.7168 33.5938 12.375 33.5938H33C34.5166 33.5938 35.75 32.3884 35.75 30.9062V17.4688C35.75 15.9866 34.5166 14.7812 33 14.7812ZM30.25 26.875H27.5V21.5H30.25V26.875ZM12.375 14.7812C12.021 14.7658 11.6867 14.6174 11.4418 14.3671C11.1968 14.1168 11.0601 13.7838 11.0601 13.4375C11.0601 13.0912 11.1968 12.7582 11.4418 12.5079C11.6867 12.2576 12.021 12.1092 12.375 12.0938H30.25V14.7812H12.375Z" fill="#3380FF"/>
</svg>
